HIERARCHY
ROOT SpineBase
{
  OFFSET 0.000000 0.000000 0.000000
  CHANNELS 6 Xposition Yposition Zposition Zrotation Xrotation Yrotation
  JOINT SpineMid
  {
    OFFSET 0.000000 24.205055 0.000000
    CHANNELS 3 Zrotation Xrotation Yrotation
    JOINT SpineShoulder
    {
      OFFSET 0.115325 17.978119 -0.539196
      CHANNELS 3 Zrotation Xrotation Yrotation
      JOINT Neck
      {
        OFFSET 0.067228 5.951338 -0.413643
        CHANNELS 3 Zrotation Xrotation Yrotation
        JOINT Head
        {
          OFFSET 1.591923 9.354037 2.754003
          CHANNELS 3 Zrotation Xrotation Yrotation
          End Site
          {
            OFFSET 0 0 0
          }
        }
      }
      JOINT ShoulderLeft
      {
        OFFSET -2.380018 -4.730888 -12.684907
        CHANNELS 3 Zrotation Xrotation Yrotation
        JOINT ElbowLeft
        {
          OFFSET 0.827899 -21.857957 -2.737672
          CHANNELS 3 Zrotation Xrotation Yrotation
          JOINT WristLeft
          {
            OFFSET 2.842971 -19.785622 -0.053942
            CHANNELS 3 Zrotation Xrotation Yrotation
            JOINT HandLeft
            {
              OFFSET -0.192901 -6.026009 1.051316
              CHANNELS 3 Zrotation Xrotation Yrotation
              JOINT HandTipLeft
              {
                OFFSET 1.496890 -5.336967 -1.191017
                CHANNELS 3 Zrotation Xrotation Yrotation
                End Site
                {
                  OFFSET 0 0 0
                }
              }
              JOINT ThumbLeft
              {
                OFFSET 1.487825 1.058386 0.550318
                CHANNELS 3 Zrotation Xrotation Yrotation
                End Site
                {
                  OFFSET 0 0 0
                }
              }
            }
          }
        }
      }
      JOINT ShoulderRight
      {
        OFFSET 3.975779 -5.368108 13.748202
        CHANNELS 3 Zrotation Xrotation Yrotation
        JOINT ElbowRight
        {
          OFFSET 4.430550 -23.605548 -13.738177
          CHANNELS 3 Zrotation Xrotation Yrotation
          JOINT WristRight
          {
            OFFSET 3.727094 -16.873250 19.725245
            CHANNELS 3 Zrotation Xrotation Yrotation
            JOINT HandRight
            {
              OFFSET 1.830248 -21.774810 17.485854
              CHANNELS 3 Zrotation Xrotation Yrotation
              JOINT HandTipRight
              {
                OFFSET -0.693671 -2.210980 -1.707555
                CHANNELS 3 Zrotation Xrotation Yrotation
                End Site
                {
                  OFFSET 0 0 0
                }
              }
              JOINT ThumbRight
              {
                OFFSET 0.124177 0.998557 -1.580446
                CHANNELS 3 Zrotation Xrotation Yrotation
                End Site
                {
                  OFFSET 0 0 0
                }
              }
            }
          }
        }
      }
    }
  }
  JOINT HipLeft
  {
    OFFSET -1.125355 -0.114221 -5.240805
    CHANNELS 3 Zrotation Xrotation Yrotation
    JOINT KneeLeft
    {
      OFFSET -9.181578 -42.714387 1.796276
      CHANNELS 3 Zrotation Xrotation Yrotation
      JOINT AnkleLeft
      {
        OFFSET -6.833138 -32.270887 1.672407
        CHANNELS 3 Zrotation Xrotation Yrotation
        JOINT FootLeft
        {
          OFFSET 2.999994 -6.135474 -2.194342
          CHANNELS 3 Zrotation Xrotation Yrotation
          End Site
          {
            OFFSET 0 0 0
          }
        }
      }
    }
  }
  JOINT HipRight
  {
    OFFSET 1.818716 0.912741 -0.077094
    CHANNELS 3 Zrotation Xrotation Yrotation
    JOINT KneeRight
    {
      OFFSET -4.021385 -31.845281 -7.587903
      CHANNELS 3 Zrotation Xrotation Yrotation
      JOINT AnkleRight
      {
        OFFSET -10.235926 -31.893424 3.552356
        CHANNELS 3 Zrotation Xrotation Yrotation
        JOINT FootRight
        {
          OFFSET 4.684602 -4.915195 -1.916242
          CHANNELS 3 Zrotation Xrotation Yrotation
          End Site
          {
            OFFSET 0 0 0
          }
        }
      }
    }
  }
}
MOTION
Frames: 13
Frame Time: 0.033333
-42.191672 81.563198 348.749007 -0.000000 0.000000 -60.310531 -0.000000 0.000000 60.310531 -0.000000 0.000000 0.000000 -0.000000 0.000000 0.000000 0.000000 0.000000 0.000000 -0.000000 0.000000 0.000000 -0.000000 0.000000 0.000000 -0.000000 0.000000 0.000000 -0.000000 0.000000 0.000000 0.000000 0.000000 0.000000 0.000000 0.000000 0.000000 -0.000000 0.000000 0.000000 -0.000000 0.000000 0.000000 -0.000000 0.000000 0.000000 -0.000000 0.000000 0.000000 0.000000 0.000000 0.000000 0.000000 0.000000 0.000000 -0.000000 0.000000 60.310531 -0.000000 0.000000 0.000000 -0.000000 0.000000 0.000000 0.000000 0.000000 0.000000 -0.000000 0.000000 60.310531 -0.000000 0.000000 0.000000 -0.000000 0.000000 0.000000 0.000000 0.000000 0.000000
-42.123147 81.560096 348.738360 -0.050466 0.111856 -59.999291 0.122103 -0.012225 59.999353 -0.000000 0.000000 0.000000 -0.000000 0.000000 0.000000 0.000000 0.000000 0.000000 -0.000000 0.000000 0.000000 -0.000000 0.000000 0.000000 -1.193297 -1.938230 -0.165784 1.710752 1.218194 -0.208290 0.000000 0.000000 0.000000 0.000000 0.000000 0.000000 -0.000000 0.000000 0.000000 -0.000000 0.000000 0.000000 -0.000000 0.000000 0.000000 -0.000000 0.000000 0.000000 0.000000 0.000000 0.000000 0.000000 0.000000 0.000000 0.122103 -0.012225 59.999353 -0.000000 0.000000 0.000000 -0.575242 -0.875973 -0.228168 0.000000 0.000000 0.000000 0.122103 -0.012225 59.999353 -0.000000 0.000000 0.000000 -15.128420 -10.053821 -5.968350 0.000000 0.000000 0.000000
-42.057593 81.552757 348.736987 -0.087421 0.202010 -59.697935 0.218520 -0.026449 59.698139 -0.000000 0.000000 0.000000 -0.000000 0.000000 0.000000 0.000000 0.000000 0.000000 -0.000000 0.000000 0.000000 -0.000000 0.000000 0.000000 -2.159160 -3.589987 -0.327465 3.095341 2.269247 -0.441876 0.000000 0.000000 0.000000 0.000000 0.000000 0.000000 -0.000000 0.000000 0.000000 -0.000000 0.000000 0.000000 -0.000000 0.000000 0.000000 -0.545617 -0.619418 0.614416 0.000000 0.000000 0.000000 0.000000 0.000000 0.000000 0.218520 -0.026449 59.698139 -0.000000 0.000000 0.000000 -1.143312 -1.635630 -0.411319 0.000000 0.000000 0.000000 0.218520 -0.026449 59.698139 -0.000000 0.000000 0.000000 -29.217992 -17.115344 -13.339271 0.000000 0.000000 0.000000
-41.995011 81.541182 348.744890 -0.110876 0.270473 -59.406650 0.289253 -0.042212 59.407018 -0.000000 0.000000 0.000000 -0.000000 0.000000 0.000000 0.000000 0.000000 0.000000 -0.000000 0.000000 0.000000 0.286282 0.936815 0.131442 -3.190032 -5.868735 -0.649891 4.144085 3.138307 -0.670622 0.000000 0.000000 0.000000 0.000000 0.000000 0.000000 -0.000000 0.000000 0.000000 -0.000000 0.000000 0.000000 -0.000000 0.000000 0.000000 -0.719452 -0.805561 0.806103 0.000000 0.000000 0.000000 0.000000 0.000000 0.000000 0.289253 -0.042212 59.407018 -0.000000 0.000000 0.000000 -1.700645 -2.275005 -0.545857 0.000000 0.000000 0.000000 0.289253 -0.042212 59.407018 -0.000000 0.000000 0.000000 -39.499799 -20.819217 -19.565951 0.000000 0.000000 0.000000
-41.935400 81.525371 348.762069 -0.120847 0.317264 -59.125596 0.334320 -0.059083 59.126103 -0.000000 0.000000 0.000000 -0.000000 0.000000 0.000000 0.000000 0.000000 0.000000 -0.133828 -0.918289 -0.019113 0.477264 1.999770 0.162594 -3.734490 -7.051889 -0.787927 4.852068 3.817846 -0.869634 0.000000 0.000000 0.000000 0.000000 0.000000 0.000000 -0.000000 0.000000 0.000000 -0.000000 0.000000 0.000000 -0.000000 0.000000 0.000000 -0.829615 -0.909738 0.923111 0.000000 0.000000 0.000000 0.000000 0.000000 0.000000 0.334320 -0.059083 59.126103 -0.000000 0.000000 0.000000 -2.244013 -2.791008 -0.628449 0.000000 0.000000 0.000000 0.334320 -0.059083 59.126103 -0.000000 0.000000 0.000000 -45.373396 -22.453259 -23.530068 0.000000 0.000000 0.000000
-41.878761 81.505323 348.788522 -0.117357 0.342413 -58.854906 0.353755 -0.076656 58.855494 -0.000000 0.000000 0.000000 -0.000000 0.000000 0.000000 0.000000 0.000000 0.000000 -0.217871 -0.968558 -0.011253 0.599846 2.108735 0.160014 -4.005226 -7.839752 -0.855117 5.218475 4.305577 -1.020459 0.000000 0.000000 0.000000 0.000000 0.000000 0.000000 -0.000000 0.000000 0.000000 -0.000000 0.000000 0.000000 -0.000000 0.000000 0.000000 -0.877098 -0.932168 0.966459 0.000000 0.000000 0.000000 0.000000 0.000000 0.000000 0.353755 -0.076656 58.855494 -0.000000 0.000000 0.000000 -2.770580 -3.181357 -0.656086 0.000000 0.000000 0.000000 0.353755 -0.076656 58.855494 -0.000000 0.000000 0.000000 -47.223833 -23.013002 -25.184141 0.000000 0.000000 0.000000
-41.829365 81.465819 348.844906 -0.096596 0.358900 -58.798055 0.357026 -0.103306 58.798679 -0.000000 0.000000 0.000000 -0.000000 0.000000 0.000000 0.000000 0.000000 0.000000 -0.345270 -0.958800 0.004044 0.697169 2.118084 0.146297 -3.833199 -7.654154 -0.824154 4.432044 4.332362 -0.750018 0.000000 0.000000 0.000000 0.000000 0.000000 0.000000 -0.000000 0.000000 0.000000 -0.000000 0.000000 0.000000 -0.000000 0.000000 0.000000 -0.947355 -1.096735 1.071808 0.000000 0.000000 0.000000 0.000000 0.000000 0.000000 0.357026 -0.103306 58.798679 -0.000000 0.000000 0.000000 -3.335854 -3.519960 -0.647106 0.000000 0.000000 0.000000 0.357026 -0.103306 58.798679 -0.000000 0.000000 0.000000 -38.983417 -21.808730 -21.924691 0.000000 0.000000 0.000000
-41.789367 81.426571 348.919888 -0.072132 0.335772 -58.458959 0.323901 -0.114169 58.459493 -0.000000 0.000000 0.000000 0.269242 0.903100 -0.234639 0.000000 0.000000 0.000000 -0.376290 -0.982692 0.006689 0.741866 2.099458 0.136454 -3.879420 -9.563273 -0.818038 4.328514 9.447093 0.005362 0.000000 0.000000 0.000000 0.000000 0.000000 0.000000 -0.000000 0.000000 0.000000 -0.000000 0.000000 0.000000 -0.000000 0.000000 0.000000 -0.904895 -1.025989 1.017157 0.000000 0.000000 0.000000 0.000000 0.000000 0.000000 0.323901 -0.114169 58.459493 -0.000000 0.000000 0.000000 -4.079611 -3.748115 -0.522394 0.000000 0.000000 0.000000 0.323901 -0.114169 58.459493 -0.000000 0.000000 0.000000 -35.445391 -21.245333 -20.780452 0.000000 0.000000 0.000000
-41.740720 81.391535 348.969202 -0.031716 0.294201 -58.175410 0.266697 -0.128189 58.175790 -0.000000 0.000000 0.000000 0.316157 1.156130 -0.292304 0.000000 0.000000 0.000000 -0.703653 -0.745643 0.055369 1.246599 1.604065 0.046348 -3.040891 -7.461325 -0.524452 4.964565 5.154756 -1.147101 0.000000 0.000000 0.000000 0.000000 0.000000 0.000000 -0.000000 0.000000 0.000000 -0.000000 0.000000 0.000000 -0.000000 0.000000 0.000000 -0.756574 -0.749038 0.816794 0.000000 0.000000 0.000000 0.000000 0.000000 0.000000 0.266697 -0.128189 58.175790 -0.000000 0.000000 0.000000 -4.493944 -3.743262 -0.381583 0.000000 0.000000 0.000000 0.266697 -0.128189 58.175790 -0.000000 0.000000 0.000000 -31.133427 -20.018688 -18.560801 0.000000 0.000000 0.000000
-41.692443 81.378460 348.988837 0.030367 0.261950 -57.889588 0.205737 -0.164961 57.889815 -0.000000 0.000000 0.000000 0.291881 1.361467 -0.320135 0.000000 0.000000 0.000000 -0.787093 -0.295935 0.085392 0.787544 0.294733 -0.089450 -2.143781 -6.110561 -0.289826 7.218497 1.859271 -2.612096 0.000000 0.000000 0.000000 0.000000 0.000000 0.000000 -0.000000 0.000000 0.000000 -0.000000 0.000000 0.000000 -0.000000 0.000000 0.000000 -0.000000 0.000000 0.000000 0.000000 0.000000 0.000000 0.000000 0.000000 0.000000 0.205737 -0.164961 57.889815 -0.000000 0.000000 0.000000 -4.997728 -3.814590 -0.252224 0.000000 0.000000 0.000000 0.694954 -1.061827 58.126942 0.503318 0.889022 -0.235795 0.705928 -3.705893 -3.809932 0.000000 0.000000 0.000000
-41.658155 81.375540 348.996975 0.053428 0.229638 -57.636794 0.165370 -0.168050 57.636929 -0.000000 0.000000 0.000000 0.355210 1.738840 -0.404325 0.000000 0.000000 0.000000 -0.816984 0.034557 0.103907 0.816920 -0.036035 -0.103404 -1.628201 -6.321999 -0.169711 6.412855 1.707601 -2.702122 0.000000 0.000000 0.000000 0.000000 0.000000 0.000000 -0.000000 0.000000 0.000000 -0.000000 0.000000 0.000000 -0.000000 0.000000 0.000000 -0.000000 0.000000 0.000000 0.000000 0.000000 0.000000 0.000000 0.000000 0.000000 0.165370 -0.168050 57.636929 -0.000000 0.000000 0.000000 -5.205930 -3.717870 -0.128787 0.000000 0.000000 0.000000 1.215566 -1.203738 57.906750 0.319367 1.439930 -0.261262 3.956178 -1.360489 -2.715368 0.000000 0.000000 0.000000
-41.609208 81.388925 348.956841 0.097076 0.206521 -57.111507 0.120709 -0.193659 57.111536 -0.000000 0.000000 0.000000 0.407017 2.094107 -0.481397 0.000000 0.000000 0.000000 -0.000000 0.000000 0.000000 -0.000000 0.000000 0.000000 -1.271227 -3.944789 -0.138363 4.367931 -0.491791 -1.982950 0.000000 0.000000 0.000000 0.000000 0.000000 0.000000 -0.000000 0.000000 0.000000 -0.000000 0.000000 0.000000 -0.000000 0.000000 0.000000 -0.000000 0.000000 0.000000 0.000000 0.000000 0.000000 0.000000 0.000000 0.000000 0.120709 -0.193659 57.111536 -0.000000 0.000000 0.000000 -4.359503 -3.132929 -0.094286 0.000000 0.000000 0.000000 1.330662 -1.305888 57.398820 -0.544312 2.271699 -0.547884 6.676141 -0.143260 -1.400306 0.000000 0.000000 0.000000
-41.561490 81.412485 348.900952 0.119715 0.223039 -56.413647 0.119578 -0.223113 56.413647 -0.000000 0.000000 0.000000 0.514089 2.436646 -0.573876 0.000000 0.000000 0.000000 -0.000000 0.000000 0.000000 -0.000000 0.000000 0.000000 -2.176485 -1.570600 -0.358242 2.987594 -0.182383 -0.389939 0.000000 0.000000 0.000000 0.000000 0.000000 0.000000 -0.000000 0.000000 0.000000 -0.000000 0.000000 0.000000 -0.000000 0.000000 0.000000 -0.000000 0.000000 0.000000 0.000000 0.000000 0.000000 0.000000 0.000000 0.000000 0.119578 -0.223113 56.413647 -0.000000 0.000000 0.000000 -3.404191 -2.579833 -0.123242 0.000000 0.000000 0.000000 1.532833 -1.424499 56.719859 -0.701925 2.577433 -0.592070 5.799153 -0.029287 -0.834209 0.000000 0.000000 0.000000
